# xmcd CD database file
#
# Track frame offsets:
#	150
#	12807
#	30462
#	42140
#	55975
#	75975
#	94260
#	110812
#	128075
#	145592
#	160832
#	178472
#	192967
#	207860
#	221530
#	234405
#
# Disc length: 3374 seconds
#
# Revision: 2
# Processed by: cddbd v1.5.1PL0 Copyright (c) Steve Scherf et al.
# Submitted via: CDex 1.50
#
DISCID=d40d2c10
DTITLE=Various Artist - The Very Best Of New Country - Disk 2
DYEAR=2001
DGENRE=Country
TTITLE0=Dwight Yoakam - Honky Tonk Man
TTITLE1=Winonna Judd - I Saw The Light
TTITLE2=Steve Earle - Guitar Town
TTITLE3=Patty Loveless - Hurt Me Bad (In A Real Good Way)
TTITLE4=John Michael Montgomery - I Swear
TTITLE5=Randy Travis - Hard Rock Bottom Of Your Heart
TTITLE6=Dan Seals - Bop
TTITLE7=Travis Tritt - Anymore
TTITLE8=The Wilkinsons - 26 Cents
TTITLE9=Kathy Mattea - Eighteen Wheels And A Dozen Roses
TTITLE10=John Berry - Your Love Amazes Me
TTITLE11=Doug Stone - Why Didn't I Think Of That
TTITLE12=Highway 101 - Somewhere Tonight
TTITLE13=David Ball - Thinkin' Problem
TTITLE14=Ian Tyson - Navajo Rug
TTITLE15=Tanya Tucker - Two Sparrows In A Hurricane
EXTD=YEAR: 2001
EXTT0=
EXTT1=
EXTT2=
EXTT3=
EXTT4=
EXTT5=
EXTT6=
EXTT7=
EXTT8=
EXTT9=
EXTT10=
EXTT11=
EXTT12=
EXTT13=
EXTT14=
EXTT15=
PLAYORDER=
